<svg width="32" height="32" viewBox="0 0 32 32" fill="none" xmlns="http://www.w3.org/2000/svg">
<path d="M29.2933 24.4401C29.2933 24.9201 29.1867 25.4134 28.96 25.8934C28.7333 26.3734 28.44 26.8267 28.0533 27.2534C27.4 27.9734 26.68 28.4934 25.8667 28.8267C25.0667 29.1601 24.2 29.3334 23.2667 29.3334C21.9067 29.3334 20.4533 29.0134 18.92 28.3601C17.3867 27.7067 15.8533 26.8267 14.3333 25.7201C12.8 24.6001 11.3467 23.3601 9.96 21.9867C8.58667 20.6001 7.34667 19.1467 6.24 17.6267C5.14667 16.1067 4.26667 14.5867 3.62667 13.0801C2.98667 11.5601 2.66667 10.1067 2.66667 8.72008C2.66667 7.81341 2.82667 6.94675 3.14667 6.14675C3.46667 5.33341 3.97334 4.58675 4.68 3.92008C5.53334 3.08008 6.46667 2.66675 7.45334 2.66675C7.82667 2.66675 8.2 2.74675 8.53334 2.90675C8.88 3.06675 9.18667 3.30675 9.42667 3.65341L12.52 8.01341C12.76 8.34675 12.9333 8.65341 13.0533 8.94675C13.1733 9.22675 13.24 9.50675 13.24 9.76008C13.24 10.0801 13.1467 10.4001 12.96 10.7067C12.7867 11.0134 12.5333 11.3334 12.2133 11.6534L11.2 12.7067C11.0533 12.8534 10.9867 13.0267 10.9867 13.2401C10.9867 13.3467 11 13.4401 11.0267 13.5467C11.0667 13.6534 11.1067 13.7334 11.1333 13.8134C11.3733 14.2534 11.7867 14.8267 12.3733 15.5201C12.9733 16.2134 13.6133 16.9201 14.3067 17.6267C15.0267 18.3334 15.72 18.9867 16.4267 19.5867C17.12 20.1734 17.6933 20.5734 18.1467 20.8134C18.2133 20.8401 18.2933 20.8801 18.3867 20.9201C18.4933 20.9601 18.6 20.9734 18.72 20.9734C18.9467 20.9734 19.12 20.8934 19.2667 20.7467L20.28 19.7467C20.6133 19.4134 20.9333 19.1601 21.24 19.0001C21.5467 18.8134 21.8533 18.7201 22.1867 18.7201C22.44 18.7201 22.7067 18.7734 23 18.8934C23.2933 19.0134 23.6 19.1867 23.9333 19.4134L28.3467 22.5467C28.6933 22.7867 28.9333 23.0667 29.08 23.4001C29.2133 23.7334 29.2933 24.0667 29.2933 24.4401Z" stroke="white" stroke-width="1.5" stroke-miterlimit="10"/>
<path d="M24.6667 11.9999C24.6667 11.1999 24.04 9.97325 23.1067 8.97325C22.2533 8.05325 21.12 7.33325 20 7.33325" stroke="white" stroke-width="1.5" stroke-linecap="round" stroke-linejoin="round"/>
<path d="M29.3333 12.0001C29.3333 6.84008 25.16 2.66675 20 2.66675" stroke="white" stroke-width="1.5" stroke-linecap="round" stroke-linejoin="round"/>
</svg>
