<svg width="28" height="28" viewBox="0 0 28 28" fill="none" xmlns="http://www.w3.org/2000/svg">
<g clip-path="url(#clip0_295_4573)">
<path d="M1.22929 8.3646C2.13167 3.99553 4.9082 1.5621 9.23908 0.826983C12.4406 0.283675 15.6433 0.276795 18.8395 0.842239C23.2988 1.63109 25.9795 4.20643 26.8335 8.64155C27.4933 12.0692 27.5037 15.5333 26.8231 18.9577C25.9102 23.2965 23.0621 25.9747 18.7472 26.7072C15.5456 27.2504 12.3429 27.2573 9.14674 26.6919C4.68747 25.903 1.99483 23.1991 1.14089 18.764C0.447439 15.3138 0.514162 11.8277 1.22929 8.36454V8.3646Z" fill="#EDF2FC"/>
<path fill-rule="evenodd" clip-rule="evenodd" d="M13.4914 6.59913C9.78028 6.86083 6.85064 9.96721 6.85064 13.7607C6.85064 17.7258 10.0513 20.9402 13.9996 20.9402C17.9478 20.9402 21.1485 17.7258 21.1485 13.7607C21.1485 10.3724 18.8114 7.53235 15.6677 6.77772V5.98014C19.2427 6.74936 21.923 9.94065 21.923 13.7607C21.923 18.1554 18.3756 21.718 13.9996 21.718C9.62359 21.718 6.07617 18.1554 6.07617 13.7607C6.07617 9.36605 9.62359 5.80347 13.9996 5.80347C14.1193 5.80347 14.2385 5.80616 14.357 5.81142V6.59004L14.3453 6.58944V16.1222L17.6576 13.313L18.2614 13.9194L14.3387 17.3415C14.0126 17.6691 13.6203 17.6901 13.4914 17.5607V6.59913ZM12.8878 15.6489V16.7405L9.71022 13.9989L10.2476 13.3324L12.8878 15.6488V15.6489Z" fill="#1D59CB"/>
</g>
<defs>
<clipPath id="clip0_295_4573">
<rect width="28" height="28" fill="white"/>
</clipPath>
</defs>
</svg>
