<svg width="32" height="32" viewBox="0 0 32 32" fill="none" xmlns="http://www.w3.org/2000/svg">
<path d="M26 27.5H6.585C5.36939 27.4987 4.20394 27.0152 3.34438 26.1556C2.48481 25.2961 2.00132 24.1306 2 22.915V9.085C2.00132 7.86939 2.48481 6.70394 3.34438 5.84438C4.20394 4.98481 5.36939 4.50132 6.585 4.5H25.415C26.6306 4.50132 27.7961 4.98481 28.6556 5.84438C29.5152 6.70394 29.9987 7.86939 30 9.085V23C30 23.2652 29.8946 23.5196 29.7071 23.7071C29.5196 23.8946 29.2652 24 29 24C28.7348 24 28.4804 23.8946 28.2929 23.7071C28.1054 23.5196 28 23.2652 28 23V9.085C27.9987 8.39982 27.7259 7.74308 27.2414 7.25859C26.7569 6.77409 26.1002 6.50132 25.415 6.5H6.585C5.89982 6.50132 5.24308 6.77409 4.75859 7.25859C4.27409 7.74308 4.00132 8.39982 4 9.085V22.915C4.00132 23.6002 4.27409 24.2569 4.75859 24.7414C5.24308 25.2259 5.89982 25.4987 6.585 25.5H26C26.2652 25.5 26.5196 25.6054 26.7071 25.7929C26.8946 25.9804 27 26.2348 27 26.5C27 26.7652 26.8946 27.0196 26.7071 27.2071C26.5196 27.3946 26.2652 27.5 26 27.5Z" fill="#909090"/>
<path d="M13.645 21.625C13.2752 21.6233 12.912 21.5269 12.59 21.345C12.2605 21.1624 11.9857 20.8951 11.794 20.5708C11.6024 20.2464 11.5009 19.8767 11.5 19.5V12.525C11.4997 12.1451 11.6003 11.772 11.7915 11.4438C11.9827 11.1156 12.2577 10.844 12.5882 10.6569C12.9188 10.4697 13.2931 10.3737 13.6729 10.3787C14.0527 10.3836 14.4244 10.4893 14.75 10.685L20.545 14.185C20.8617 14.3764 21.1237 14.6464 21.3055 14.9687C21.4873 15.2911 21.5828 15.6549 21.5828 16.025C21.5828 16.3951 21.4873 16.7589 21.3055 17.0813C21.1237 17.4036 20.8617 17.6736 20.545 17.865L14.75 21.365C14.4122 21.5507 14.0301 21.6406 13.645 21.625ZM13.645 12.375C13.6221 12.3688 13.5979 12.3688 13.575 12.375C13.5514 12.3873 13.5319 12.4061 13.5186 12.4291C13.5053 12.4521 13.4989 12.4784 13.5 12.505V19.5C13.4998 19.5258 13.5066 19.5511 13.5194 19.5734C13.5323 19.5958 13.551 19.6142 13.5734 19.627C13.5958 19.6397 13.6212 19.6462 13.647 19.6459C13.6727 19.6455 13.6979 19.6383 13.72 19.625L19.515 16.125C19.5368 16.1122 19.5548 16.0939 19.5674 16.072C19.5799 16.0501 19.5865 16.0253 19.5865 16C19.5865 15.9747 19.5799 15.9499 19.5674 15.928C19.5548 15.9061 19.5368 15.8878 19.515 15.875L13.72 12.4C13.6992 12.3822 13.6723 12.3732 13.645 12.375Z" fill="#909090"/>
<path d="M6.5 14.5C6.23478 14.5 5.98043 14.3946 5.79289 14.2071C5.60536 14.0196 5.5 13.7652 5.5 13.5V10.5C5.5 10.2348 5.60536 9.98043 5.79289 9.79289C5.98043 9.60536 6.23478 9.5 6.5 9.5C6.76522 9.5 7.01957 9.60536 7.20711 9.79289C7.39464 9.98043 7.5 10.2348 7.5 10.5V13.5C7.5 13.7652 7.39464 14.0196 7.20711 14.2071C7.01957 14.3946 6.76522 14.5 6.5 14.5Z" fill="#1D59CB"/>
</svg>
