<svg width="34" height="34" viewBox="0 0 34 34" fill="none" xmlns="http://www.w3.org/2000/svg">
<path d="M28.1025 0C30.8187 0 33.0215 2.20181 33.0215 4.91797V28.1025C33.0215 30.8187 30.8187 33.0215 28.1025 33.0215H4.91797C2.20181 33.0215 0 30.8187 0 28.1025V4.91797C3.17815e-07 2.20181 2.20181 0 4.91797 0H28.1025ZM16.5107 8.25488C11.9515 8.25488 8.25488 11.9515 8.25488 16.5107C8.25497 21.0699 11.9515 24.7656 16.5107 24.7656C21.0698 24.7654 24.7655 21.0698 24.7656 16.5107C24.7656 11.9516 21.0699 8.25506 16.5107 8.25488ZM16.5107 11.5566C19.246 11.5568 21.4636 13.7745 21.4639 16.5098C21.4639 19.2452 19.2461 21.4637 16.5107 21.4639C13.7752 21.4639 11.5576 19.2453 11.5576 16.5098C11.5579 13.7744 13.7753 11.5566 16.5107 11.5566ZM26.417 4.95312C25.5051 4.95312 24.7656 5.69264 24.7656 6.60449C24.7657 7.51624 25.5052 8.25488 26.417 8.25488C27.3286 8.25474 28.0673 7.51615 28.0674 6.60449C28.0674 5.69273 27.3287 4.95326 26.417 4.95312Z" fill="#1D59CB"/>
</svg>
