<svg width="32" height="34" viewBox="0 0 32 34" fill="none" xmlns="http://www.w3.org/2000/svg">
<path d="M6.60449 33.0215H0V10.7314H6.60449V33.0215ZM18.1611 10.7314V12.1211C19.194 11.756 20.306 11.5576 21.4639 11.5576C26.9348 11.5578 31.3701 15.9929 31.3701 21.4639V33.0215H24.7656V21.4639C24.7656 19.6403 23.2874 18.1623 21.4639 18.1621C19.6402 18.1621 18.1611 19.6402 18.1611 21.4639V33.0215H11.5576V10.7314H18.1611ZM3.30176 0C5.12537 0 6.60434 1.47818 6.60449 3.30176C6.60449 5.12546 5.12546 6.60449 3.30176 6.60449C1.47818 6.60434 0 5.12537 0 3.30176C0.000152867 1.47828 1.47828 0.000152868 3.30176 0Z" fill="#515151"/>
</svg>
