<svg width="18" height="18" viewBox="0 0 18 18" fill="none" xmlns="http://www.w3.org/2000/svg">
<path d="M9.0004 0.529419C6.35334 0.529419 4.2357 2.64707 4.2357 5.29412V7.41177C3.3357 7.41177 2.64746 8.10001 2.64746 9.00001V15.8824C2.64746 16.7824 3.3357 17.4706 4.2357 17.4706H13.7651C14.6651 17.4706 15.3533 16.7824 15.3533 15.8824V9.00001C15.3533 8.10001 14.6651 7.41177 13.7651 7.41177V5.29412C13.7651 2.64707 11.6475 0.529419 9.0004 0.529419ZM14.2945 9.00001V15.8824C14.2945 16.2 14.0828 16.4118 13.7651 16.4118H4.2357C3.91805 16.4118 3.70628 16.2 3.70628 15.8824V9.00001C3.70628 8.68236 3.91805 8.47059 4.2357 8.47059H4.76511H13.2357H13.7651C14.0828 8.47059 14.2945 8.68236 14.2945 9.00001ZM5.29452 7.41177V5.29412C5.29452 3.22942 6.9357 1.58824 9.0004 1.58824C11.0651 1.58824 12.7063 3.22942 12.7063 5.29412V7.41177H5.29452Z" fill="#909090"/>
<path d="M9.00034 10.0588C8.10034 10.0588 7.41211 10.7471 7.41211 11.6471C7.41211 12.3353 7.83564 12.9177 8.47093 13.1294V14.2941C8.47093 14.6118 8.6827 14.8235 9.00034 14.8235C9.31799 14.8235 9.52976 14.6118 9.52976 14.2941V13.1294C10.1651 12.9177 10.5886 12.3353 10.5886 11.6471C10.5886 10.7471 9.90035 10.0588 9.00034 10.0588ZM9.00034 12.1765C8.6827 12.1765 8.47093 11.9647 8.47093 11.6471C8.47093 11.3294 8.6827 11.1177 9.00034 11.1177C9.31799 11.1177 9.52976 11.3294 9.52976 11.6471C9.52976 11.9647 9.31799 12.1765 9.00034 12.1765Z" fill="#909090"/>
</svg>
