<svg width="24" height="24" viewBox="0 0 24 24" fill="none" xmlns="http://www.w3.org/2000/svg">
<path d="M15.878 9.536L16.536 8.879C17.0017 8.41567 17.3709 7.86458 17.6222 7.25763C17.8735 6.65068 18.0019 5.99991 18 5.343V2C18 1.73478 17.8947 1.48043 17.7071 1.29289C17.5196 1.10536 17.2652 1 17 1H7.00002C6.7348 1 6.48045 1.10536 6.29291 1.29289C6.10538 1.48043 6.00002 1.73478 6.00002 2V5.343C5.99825 6.00014 6.12682 6.6511 6.37829 7.25822C6.62975 7.86534 6.99912 8.41657 7.46502 8.88L8.12202 9.535C8.68602 10.097 9.00202 10.861 9.00002 11.657V12.667C8.99851 13.3159 8.78813 13.947 8.40002 14.467L7.00002 16.334C6.35304 17.2002 6.00238 18.2518 6.00002 19.333V22C6.00002 22.2652 6.10538 22.5196 6.29291 22.7071C6.48045 22.8946 6.7348 23 7.00002 23H9.00002C8.7348 23 8.48045 22.8946 8.29291 22.7071C8.10537 22.5196 8.00002 22.2652 8.00002 22V19.333C8.00002 18.765 8.09702 18.201 8.28602 17.666C8.35513 17.471 8.48304 17.3022 8.65211 17.1829C8.82119 17.0636 9.0231 16.9997 9.23002 17H14.772C14.9788 16.9999 15.1805 17.0639 15.3493 17.1832C15.5182 17.3024 15.646 17.4711 15.715 17.666C15.905 18.201 16.001 18.766 16.001 19.333V22C16.001 22.2652 15.8957 22.5196 15.7081 22.7071C15.5206 22.8946 15.2662 23 15.001 23H17.001C17.2662 23 17.5206 22.8946 17.7081 22.7071C17.8957 22.5196 18.001 22.2652 18.001 22V19.333C17.9988 18.2518 17.6481 17.2001 17.001 16.334L15.601 14.467C15.2128 13.9471 15.0024 13.3159 15.001 12.667V11.657C15 11.2631 15.0771 10.873 15.2278 10.5091C15.3785 10.1452 15.5998 9.81481 15.879 9.537L15.878 9.536ZM14.536 8.879L13.878 9.536C13.5996 9.81419 13.3788 10.1445 13.2281 10.5081C13.0775 10.8717 13 11.2614 13 11.655V12H11V11.657C11 10.86 10.683 10.095 10.118 9.532L9.46502 8.88C8.69214 8.10163 8.1997 7.0886 8.06502 6H15.935C15.8004 7.08833 15.3079 8.10107 14.535 8.879H14.536Z" fill="#9BC2DC" fill-opacity="0.38"/>
<path d="M13.0005 12V11.655C13.0005 10.86 13.3165 10.098 13.8785 9.536L14.5365 8.879C15.3094 8.10107 15.8019 7.08833 15.9365 6H8.06445C8.19913 7.0886 8.69158 8.10163 9.46445 8.88L10.1185 9.532C10.6835 10.095 11.0005 10.86 11.0005 11.657V12H13.0005Z" fill="#A6C9E0"/>
<path d="M19 3H5C4.73478 3 4.48043 2.89464 4.29289 2.70711C4.10536 2.51957 4 2.26522 4 2C4 1.73478 4.10536 1.48043 4.29289 1.29289C4.48043 1.10536 4.73478 1 5 1H19C19.2652 1 19.5196 1.10536 19.7071 1.29289C19.8946 1.48043 20 1.73478 20 2C20 2.26522 19.8946 2.51957 19.7071 2.70711C19.5196 2.89464 19.2652 3 19 3Z" fill="#1D59CB"/>
<path d="M15 23H9C8.73478 23 8.48043 22.8946 8.29289 22.7071C8.10536 22.5196 8 22.2652 8 22V19.333C8 18.765 8.097 18.201 8.286 17.666C8.35511 17.471 8.48302 17.3022 8.65209 17.1829C8.82117 17.0636 9.02308 16.9997 9.23 17H14.772C14.9787 16.9999 15.1804 17.0639 15.3493 17.1832C15.5182 17.3024 15.6459 17.4711 15.715 17.666C15.905 18.201 16.001 18.766 16.001 19.333V22C16.001 22.2652 15.8956 22.5196 15.7081 22.7071C15.5206 22.8946 15.2662 23 15.001 23H15Z" fill="#A6C9E0"/>
<path d="M19 23H5C4.73478 23 4.48043 22.8946 4.29289 22.7071C4.10536 22.5196 4 22.2652 4 22C4 21.7348 4.10536 21.4804 4.29289 21.2929C4.48043 21.1054 4.73478 21 5 21H19C19.2652 21 19.5196 21.1054 19.7071 21.2929C19.8946 21.4804 20 21.7348 20 22C20 22.2652 19.8946 22.5196 19.7071 22.7071C19.5196 22.8946 19.2652 23 19 23Z" fill="#1D59CB"/>
</svg>
