<svg width="9" height="9" viewBox="0 0 9 9" fill="none" xmlns="http://www.w3.org/2000/svg">
<path d="M5.14872 1.31621L5.80872 2.63621C5.89872 2.81996 6.13872 2.99621 6.34122 3.02996L7.53747 3.22871C8.30247 3.35621 8.48247 3.91121 7.93122 4.45871L7.00122 5.38871C6.84372 5.54621 6.75747 5.84996 6.80622 6.06746L7.07247 7.21871C7.28247 8.12996 6.79872 8.48246 5.99247 8.00621L4.87122 7.34246C4.66872 7.22246 4.33497 7.22246 4.12872 7.34246L3.00747 8.00621C2.20497 8.48246 1.71747 8.12621 1.92747 7.21871L2.19372 6.06746C2.24247 5.84996 2.15622 5.54621 1.99872 5.38871L1.06872 4.45871C0.521216 3.91121 0.697466 3.35621 1.46247 3.22871L2.65872 3.02996C2.85747 2.99621 3.09747 2.81996 3.18747 2.63621L3.84747 1.31621C4.20747 0.59996 4.79247 0.59996 5.14872 1.31621Z" fill="#1D59CB"/>
</svg>
