<svg width="24" height="24" viewBox="0 0 24 24" fill="none" xmlns="http://www.w3.org/2000/svg">
<path d="M9.50001 14C9.43424 14.0004 9.36904 13.9877 9.3082 13.9628C9.24735 13.9378 9.19208 13.901 9.14557 13.8544C9.09906 13.8079 9.06224 13.7527 9.03726 13.6918C9.01227 13.631 8.99961 13.5658 9.00001 13.5V8.5C9.0001 8.41488 9.02192 8.33118 9.0634 8.25685C9.10489 8.18251 9.16467 8.12 9.23707 8.07524C9.30948 8.03047 9.39212 8.00493 9.47716 8.00104C9.56219 7.99715 9.64682 8.01504 9.72301 8.053L14.723 10.553C14.806 10.5945 14.8758 10.6582 14.9246 10.7371C14.9735 10.816 14.9994 10.9069 14.9995 10.9997C14.9996 11.0925 14.9739 11.1834 14.9252 11.2624C14.8766 11.3414 14.8069 11.4053 14.724 11.447L9.72401 13.947C9.65442 13.9817 9.57776 13.9998 9.50001 14ZM15 20C13.897 20 13 19.103 13 18C13 16.897 13.897 16 15 16C16.103 16 17 16.897 17 18C17 19.103 16.103 20 15 20Z" fill="#72AACE"/>
<path d="M20.5 18.5H16.5C16.3674 18.5 16.2402 18.4473 16.1464 18.3536C16.0527 18.2598 16 18.1326 16 18C16 17.8674 16.0527 17.7402 16.1464 17.6464C16.2402 17.5527 16.3674 17.5 16.5 17.5H20.5C20.6326 17.5 20.7598 17.5527 20.8536 17.6464C20.9473 17.7402 21 17.8674 21 18C21 18.1326 20.9473 18.2598 20.8536 18.3536C20.7598 18.4473 20.6326 18.5 20.5 18.5ZM13.5 18.5H3.5C3.36739 18.5 3.24021 18.4473 3.14645 18.3536C3.05268 18.2598 3 18.1326 3 18C3 17.8674 3.05268 17.7402 3.14645 17.6464C3.24021 17.5527 3.36739 17.5 3.5 17.5H13.5C13.6326 17.5 13.7598 17.5527 13.8536 17.6464C13.9473 17.7402 14 17.8674 14 18C14 18.1326 13.9473 18.2598 13.8536 18.3536C13.7598 18.4473 13.6326 18.5 13.5 18.5Z" fill="#1D59CB"/>
<path d="M21.5 23H2.5C1.8372 22.9992 1.20178 22.7356 0.73311 22.2669C0.264441 21.7982 0.000793929 21.1628 0 20.5L0 5.5C0 5.36739 0.0526784 5.24021 0.146447 5.14645C0.240215 5.05268 0.367392 5 0.5 5H23.5C23.6326 5 23.7598 5.05268 23.8536 5.14645C23.9473 5.24021 24 5.36739 24 5.5V20.5C24 21.878 22.878 23 21.5 23ZM1 6V20.5C1 21.327 1.673 22 2.5 22H21.5C22.327 22 23 21.327 23 20.5V6H1Z" fill="#1D59CB"/>
<path d="M24 6H0V3.5C0 2.83696 0.263392 2.20107 0.732233 1.73223C1.20107 1.26339 1.83696 1 2.5 1H21.5C21.8283 1 22.1534 1.06466 22.4567 1.1903C22.76 1.31594 23.0356 1.50009 23.2678 1.73223C23.4999 1.96438 23.6841 2.23998 23.8097 2.54329C23.9353 2.84661 24 3.1717 24 3.5V6Z" fill="#72AACE"/>
</svg>
