<svg width="24" height="24" viewBox="0 0 24 24" fill="none" xmlns="http://www.w3.org/2000/svg">
<path d="M2.71094 19.5151V6.82473C2.71094 6.75528 2.76766 6.69873 2.83694 6.69873H21.1637C21.2331 6.69873 21.2898 6.75528 21.2898 6.82473V19.5151H2.71094Z" fill="#9BC2DC" fill-opacity="0.38"/>
<path d="M23.545 20.606C23.5452 20.8295 23.5012 21.0509 23.4156 21.2574C23.3299 21.4639 23.2044 21.6514 23.0461 21.8093C22.8883 21.9675 22.7007 22.0931 22.4942 22.1787C22.2877 22.2643 22.0664 22.3083 21.8428 22.3082H2.15628C1.21628 22.3082 0.454102 21.5458 0.454102 20.606H23.545Z" fill="#72AACE"/>
<path d="M20.2998 19.5151V1.6918H3.7002V19.5151" fill="white"/>
<path d="M5.12695 4.24109H18.8728V5.78436H5.12695V4.24109Z" fill="#9BC2DC" fill-opacity="0.38"/>
<path d="M5.12695 6.48456H18.8728V14.9062H5.12695V6.48456Z" fill="#72AACE"/>
<path d="M5.85449 13.3373H18.1458V14.1789H5.85449V13.3373ZM14.1601 10.06C14.1601 11.2527 13.1929 12.2182 12.0001 12.2182C10.8074 12.2182 9.84013 11.2527 9.84013 10.06C9.84013 8.86727 10.8074 7.89999 12.0001 7.89999C13.1929 7.89999 14.1601 8.86727 14.1601 10.06Z" fill="white"/>
<path d="M14.1605 10.06C14.1605 11.2527 13.1932 12.218 12.0005 12.218C11.5368 12.218 11.1077 12.0726 10.7568 11.8235C11.0005 11.9198 11.2677 11.9726 11.5459 11.9726C12.7387 11.9726 13.7059 11.0071 13.7059 9.81437C13.7059 9.08528 13.3441 8.43983 12.7896 8.04892C13.5914 8.36347 14.1605 9.14528 14.1605 10.0598V10.06Z" fill="#9BC2DC" fill-opacity="0.38"/>
<path d="M23.5452 20.4242H22.5619V6.82474C22.5619 6.05364 21.9345 5.42619 21.163 5.42619H20.4812V1.69164C20.4812 1.64342 20.462 1.59718 20.4279 1.56308C20.3938 1.52898 20.3476 1.50983 20.2994 1.50983H3.69992C3.65169 1.50983 3.60545 1.52898 3.57135 1.56308C3.53725 1.59718 3.5181 1.64342 3.5181 1.69164V5.42619H2.8361C2.06482 5.42619 1.43737 6.05346 1.43737 6.82474V20.4242H0.454279C0.406058 20.4242 0.359812 20.4433 0.325714 20.4774C0.291617 20.5115 0.272461 20.5578 0.272461 20.606C0.272461 21.6449 1.11755 22.49 2.15646 22.49H21.843C22.3457 22.49 22.8188 22.2938 23.1748 21.9378C23.3504 21.7634 23.4896 21.5559 23.5844 21.3272C23.6791 21.0986 23.7276 20.8535 23.727 20.606C23.727 20.5578 23.7079 20.5115 23.6738 20.4774C23.6397 20.4433 23.5934 20.4242 23.5452 20.4242ZM1.80119 6.82474C1.80157 6.55035 1.91076 6.28731 2.1048 6.09331C2.29883 5.8993 2.56189 5.79016 2.83628 5.78983H3.5181V19.5151H3.88173V3.23546H20.1176V19.5151H20.4812V5.78964H21.163C21.4375 5.78993 21.7006 5.89907 21.8947 6.09312C22.0888 6.28717 22.1979 6.55028 22.1983 6.82474V20.4242H1.80119V6.82474ZM22.9176 21.6807C22.7768 21.8224 22.6094 21.9347 22.4249 22.0112C22.2405 22.0877 22.0427 22.1268 21.843 22.1264H2.15646C1.37973 22.1264 0.737006 21.5409 0.647006 20.7878H23.3525C23.3123 21.1259 23.159 21.4405 22.9176 21.6806V21.6807Z" fill="#1D59CB"/>
<path d="M5.85449 13.3373H9.47904V14.1789H5.85449V13.3373ZM11.543 11.4447L13.033 10.0584L11.543 8.67346V11.4447ZM9.05358 16.8727L7.14649 18.4124L7.90522 19.1713L9.44486 17.2642L10.2038 18.0231V16.1158L8.29486 16.1138L9.05358 16.8727Z" fill="#1D59CB"/>
<path d="M16.755 2.46363C16.755 2.54341 16.7233 2.61993 16.6668 2.67634C16.6104 2.73275 16.5339 2.76445 16.4541 2.76445C16.3744 2.76445 16.2978 2.73275 16.2414 2.67634C16.185 2.61993 16.1533 2.54341 16.1533 2.46363C16.1533 2.38385 16.185 2.30733 16.2414 2.25092C16.2978 2.1945 16.3744 2.16281 16.4541 2.16281C16.5339 2.16281 16.6104 2.1945 16.6668 2.25092C16.7233 2.30733 16.755 2.38385 16.755 2.46363ZM17.8137 2.46363C17.8137 2.54339 17.782 2.61988 17.7256 2.67628C17.6692 2.73267 17.5927 2.76436 17.513 2.76436C17.4332 2.76436 17.3567 2.73267 17.3003 2.67628C17.2439 2.61988 17.2122 2.54339 17.2122 2.46363C17.2122 2.38387 17.2439 2.30738 17.3003 2.25098C17.3567 2.19459 17.4332 2.1629 17.513 2.1629C17.5927 2.1629 17.6692 2.19459 17.7256 2.25098C17.782 2.30738 17.8137 2.38387 17.8137 2.46363ZM18.8724 2.46363C18.8724 2.54339 18.8407 2.61988 18.7843 2.67628C18.7279 2.73267 18.6514 2.76436 18.5717 2.76436C18.4919 2.76436 18.4154 2.73267 18.359 2.67628C18.3026 2.61988 18.271 2.54339 18.271 2.46363C18.271 2.38385 18.3026 2.30733 18.3591 2.25092C18.4155 2.1945 18.492 2.16281 18.5718 2.16281C18.6516 2.16281 18.7281 2.1945 18.7845 2.25092C18.8409 2.30733 18.8724 2.38385 18.8724 2.46363Z" fill="white"/>
</svg>
